<svg xmlns="http://www.w3.org/2000/svg" xmlns:xlink="http://www.w3.org/1999/xlink" version="1.1" width="30px" height="30px" viewBox="0 0 30.0 30.0"><defs><linearGradient id="i101" x1="9.6px" y1="0.0173480941px" x2="9.6px" y2="20.4864202px" gradientUnits="userSpaceOnUse"><stop stop-color="#7953CD" offset="0.0846809441%"/><stop stop-color="#1371D9" offset="100%"/></linearGradient><clipPath id="i100"><path d="M10.4384,0 C11.7426756,9.18837961e-16 12.8,1.05732435 12.8,2.36160004 L12.8,5.05708531 L0,5.05708531 L0,2.36160004 C-1.59727704e-16,1.05732435 1.05732435,-2.04497653e-16 2.36160004,0 L10.4384,0 Z"/></clipPath><linearGradient id="i2" x1="6.4px" y1="0.00428238758px" x2="6.4px" y2="5.05708531px" gradientUnits="userSpaceOnUse"><stop stop-color="#7953CD" offset="0.0846809441%"/><stop stop-color="#1371D9" offset="100%"/></linearGradient><clipPath id="i3"><path d="M21.6384,0 C22.9426757,2.07726745e-15 24,1.05732433 24,2.3616 C24,3.67031111 22.9426757,4.72763544 21.6384,4.72763544 L2.3616,4.72763544 C1.05732433,4.72763544 -1.17253993e-15,3.67031111 0,2.36603544 C-1.59727702e-16,1.05732433 1.05732433,2.39591553e-16 2.3616,0 L21.6384,0 Z"/></clipPath><linearGradient id="i4" x1="12px" y1="0.00400340632px" x2="12px" y2="4.72763544px" gradientUnits="userSpaceOnUse"><stop stop-color="#7953CD" offset="0.0846809441%"/><stop stop-color="#1371D9" offset="100%"/></linearGradient><linearGradient id="i5" x1="0.4px" y1="0.00900766423px" x2="0.4px" y2="10.6371797px" gradientUnits="userSpaceOnUse"><stop stop-color="#7953CD" offset="0.0846809441%"/><stop stop-color="#565DD1" offset="33.7356567%"/><stop stop-color="#1371D9" offset="100%"/></linearGradient><linearGradient id="i6" x1="0.4px" y1="0.00900766423px" x2="0.4px" y2="10.6371797px" gradientUnits="userSpaceOnUse"><stop stop-color="#7953CD" offset="0.0846809441%"/><stop stop-color="#565DD1" offset="33.7356567%"/><stop stop-color="#1371D9" offset="100%"/></linearGradient></defs><g transform="translate(3.0 1.0)"><g transform="translate(2.3999999999999986 6.513579754338954)"><path d="M19.2,0 L18.5983062,16.6922068 C18.5219873,18.8094458 16.7834749,20.4864202 14.6648608,20.4864202 L4.53513921,20.4864202 C2.41652511,20.4864202 0.67801266,18.8094458 0.601693831,16.6922068 L0,0 L0,0" stroke="url(#i101)" stroke-width="2.2" fill="none" stroke-miterlimit="10"/></g><g transform="translate(5.59999999999993 0.0)"><g clip-path="url(#i100)"><path d="M2.36160004,0 L10.4384,0 C11.7426756,9.18837961e-16 12.8,1.05732435 12.8,2.36160004 L12.8,5.05708531 L12.8,5.05708531 L0,5.05708531 L0,2.36160004 C-1.59727704e-16,1.05732435 1.05732435,-2.04497653e-16 2.36160004,0 Z" stroke="url(#i2)" stroke-width="3.84" fill="none" stroke-miterlimit="5"/></g></g><g transform="translate(0.0 3.151756960870898)"><g clip-path="url(#i3)"><path d="M2.3616,0 L21.6384,0 C22.9426757,2.07726745e-15 24,1.05732433 24,2.3616 L24,2.36603544 C24,3.67031111 22.9426757,4.72763544 21.6384,4.72763544 L2.3616,4.72763544 C1.05732433,4.72763544 -1.17253993e-15,3.67031111 0,2.36603544 L0,2.3616 C-1.59727702e-16,1.05732433 1.05732433,2.39591553e-16 2.3616,0 Z" stroke="url(#i4)" stroke-width="3.84" fill="none" stroke-miterlimit="5"/></g></g><g transform="translate(7.600000000000001 11.81908860326593)"><g transform="translate(3.9999999999999982 0.0)"><path d="M0.4,0 L0.4,10.6371797" stroke="url(#i5)" stroke-width="1.92" fill="none" stroke-linecap="round" stroke-linejoin="round"/></g><path d="M0.4,0 L0.4,10.6371797" stroke="url(#i6)" stroke-width="1.92" fill="none" stroke-linecap="round" stroke-linejoin="round"/><g transform="translate(7.999999999999995 0.0)"><path d="M0.4,0 L0.4,10.6371797" stroke="url(#i5)" stroke-width="1.92" fill="none" stroke-linecap="round" stroke-linejoin="round"/></g></g></g></svg>
