<svg xmlns="http://www.w3.org/2000/svg" xmlns:xlink="http://www.w3.org/1999/xlink" version="1.1" width="30px" height="30px" viewBox="0 0 30.0 30.0"><defs><linearGradient id="i40" x1="4.70129392px" y1="0.0171165669px" x2="4.70129392px" y2="20.2130091px" gradientUnits="userSpaceOnUse"><stop stop-color="#7953CD" offset="0.0846809441%"/><stop stop-color="#1371D9" offset="100%"/></linearGradient><linearGradient id="i41" x1="9.43317046px" y1="0.0173656563px" x2="9.43317046px" y2="20.5071596px" gradientUnits="userSpaceOnUse"><stop stop-color="#7953CD" offset="0.0846809441%"/><stop stop-color="#1371D9" offset="100%"/></linearGradient><linearGradient id="i42" x1="9.73858022px" y1="0.0161763746px" x2="9.73858022px" y2="19.102733px" gradientUnits="userSpaceOnUse"><stop stop-color="#7953CD" offset="0.0846809441%"/><stop stop-color="#1371D9" offset="100%"/></linearGradient><clipPath id="i43"><path d="M2.24550734,0 C3.48560688,0 4.49101468,0.985701022 4.49101468,2.20254511 C4.49101468,3.41843407 3.48560688,4.40509022 2.24550734,4.40509022 C1.0054078,4.40509022 0,3.41843407 0,2.20254511 C0,0.985701022 1.0054078,0 2.24550734,0 Z"/></clipPath><linearGradient id="i44" x1="2.24550734px" y1="0.00373027199px" x2="2.24550734px" y2="4.40509022px" gradientUnits="userSpaceOnUse"><stop stop-color="#7953CD" offset="0.0846809441%"/><stop stop-color="#1371D9" offset="100%"/></linearGradient><clipPath id="i45"><path d="M9.90296905,0.295137224 C10.2651477,-0.0983790748 10.8958213,-0.0983790748 11.2579999,0.295137224 L15.670784,5.09183347 C16.2000477,5.66778087 15.7837838,6.58757747 14.9927857,6.58757747 L0.741299105,6.58757747 C0.100001525,6.58757747 -0.237066028,5.84257088 0.191753438,5.37550906 L3.46101896,1.82144559 C3.75462508,1.50242995 4.26457256,1.50242995 4.55914449,1.82144559 L6.52939609,3.96381709 Z"/></clipPath><linearGradient id="i46" x1="7.95370624px" y1="0.00557842279px" x2="7.95370624px" y2="6.58757747px" gradientUnits="userSpaceOnUse"><stop stop-color="#7953CD" offset="0.0846809441%"/><stop stop-color="#1371D9" offset="100%"/></linearGradient></defs><g transform="translate(1.0 3.0)"><g transform="translate(0.0026141328779694106 3.825701030296157) rotate(-10.999999999999998)"><path d="M1.39031774,20.2130091 L1.18986977,19.9945479 C0.76397612,19.5303813 0.519722597,18.9282165 0.501916858,18.298519 L0.0718154819,3.08804279 C0.0318093694,1.67323211 1.12347508,0.482784316 2.53645092,0.400388702 L9.40258783,0 L9.40258783,0" stroke="url(#i40)" stroke-width="2.39990996" fill="none" stroke-linecap="round" stroke-linejoin="round"/></g><g transform="translate(27.9957951366439 3.5986281063877996) rotate(10.999999999999998) scale(-1.0 1.0)"><path d="M1.71353729,20.5071596 L1.49730903,20.2715 C1.080972,19.8177488 0.837906715,19.2317602 0.810840145,18.6165416 L0.119053139,2.89233689 C0.0555007463,1.44780148 1.17500868,0.225254755 2.6195441,0.161702362 C2.64919415,0.160397907 2.67886424,0.159597716 2.70854151,0.159302136 L16.1439866,0.0254878513 C17.5666437,0.0113184768 18.7402262,1.13586507 18.7867534,2.55783182 L18.8663409,4.99019033 L18.8663409,4.99019033" stroke="url(#i41)" stroke-width="2.39990996" fill="none" stroke-linecap="round" stroke-linejoin="round"/></g><g transform="translate(4.001745841892497 4.897267024749981)"><path d="M2.87117508,0 L16.6059854,0 C18.1916916,-2.91289506e-16 19.4771604,1.28546887 19.4771604,2.87117508 L19.4771604,16.2315579 C19.4771604,17.8172641 18.1916916,19.102733 16.6059854,19.102733 L2.87117508,19.102733 C1.28546887,19.102733 1.94193004e-16,17.8172641 0,16.2315579 L0,2.87117508 C-1.94193004e-16,1.28546887 1.28546887,-1.52799704e-16 2.87117508,0 Z" stroke="url(#i42)" stroke-width="2.39990996" fill="none" stroke-linecap="round" stroke-linejoin="round"/></g><g transform="translate(6.986942604452523 8.717813619800854)"><g clip-path="url(#i43)"><polygon points="0,0 4.49101468,0 4.49101468,4.40509022 0,4.40509022 0,0" stroke="none" fill="url(#i44)"/></g></g><g transform="translate(6.013849193270988 13.83352551057426)"><g clip-path="url(#i45)"><polygon points="5.55111512e-17,4.4408921e-16 15.9074125,4.4408921e-16 15.9074125,6.58757747 5.55111512e-17,6.58757747 5.55111512e-17,4.4408921e-16" stroke="none" fill="url(#i46)"/></g></g></g></svg>