<svg xmlns="http://www.w3.org/2000/svg" xmlns:xlink="http://www.w3.org/1999/xlink" width="24" height="24" viewBox="0 0 24 24">
  <defs>
    <path id="icon_fill_thunbnail_small-a" d="M14.5,9.5 L9.5,9.5 L9.5,14.5 L14.5,14.5 L14.5,9.5 Z M15.5,9.5 L15.5,14.5 L20.5,14.5 L20.5,15.5 L15.5,15.5 L15.5,20.5 L14.5,20.5 L14.5,15.5 L9.5,15.5 L9.5,20.5 L8.5,20.5 L8.5,15.5 L3.5,15.5 L3.5,20.5 L20.5,20.5 L20.5,3.5 L3.5,3.5 L3.5,8.5 L8.5,8.5 L8.5,3.5 L9.5,3.5 L9.5,8.5 L14.5,8.5 L14.5,3.5 L15.5,3.5 L15.5,8.5 L20.5,8.5 L20.5,9.5 L15.5,9.5 Z M8.5,9.5 L3.5,9.5 L3.5,14.5 L8.5,14.5 L8.5,9.5 Z M2.5,2.5 L21.5,2.5 L21.5,21.5 L2.5,21.5 L2.5,2.5 Z"/>
  </defs>
  <use xlink:href="#icon_fill_thunbnail_small-a"/>
</svg>
