<svg xmlns="http://www.w3.org/2000/svg" xmlns:xlink="http://www.w3.org/1999/xlink" version="1.1" width="30px" height="30px" viewBox="0 0 30.0 30.0"><defs><clipPath id="i50"><path d="M5.42857143,0 L5.42857143,10.1851852 L2.79830255,7.63888889 L0,10.1851852 L0,0 L5.42857143,0 Z"/></clipPath><linearGradient id="i51" x1="2.71428571px" y1="0.00862491097px" x2="2.71428571px" y2="10.1851852px" gradientUnits="userSpaceOnUse"><stop stop-color="#7953CD" offset="0.0846809441%"/><stop stop-color="#1371D9" offset="100%"/></linearGradient><linearGradient id="i52" x1="9.5px" y1="0.021170236px" x2="9.5px" y2="25px" gradientUnits="userSpaceOnUse"><stop stop-color="#7953CD" offset="0.0846809441%"/><stop stop-color="#1371D9" offset="100%"/></linearGradient></defs><g transform="translate(5.5 3.0)"><g transform="translate(3.619047619047618 3.703703703703704)"><g clip-path="url(#i50)"><polygon points="0,0 5.42857143,0 5.42857143,10.1851852 0,10.1851852 0,0" stroke="none" fill="url(#i51)"/></g></g><path d="M17.5034761,0 L1.95241001,0 C0.874123734,1.98077975e-16 -1.32051983e-16,0.874123734 0,1.95241001 C1.32051983e-16,3.03069628 0.874123734,3.90482001 1.95241001,3.90482001 L17.0881457,3.90482001 C18.1440337,3.90482001 19,4.76078632 19,5.81667428 L19,22.1322186 C19,23.7160505 17.7160505,25 16.1322186,25 L2.8677814,25 C1.28394947,25 -2.50125739e-16,23.7160505 0,22.1322186 L0,1.95241001 L0,1.95241001" stroke="url(#i52)" stroke-width="2.185" fill="none" stroke-linecap="round" stroke-linejoin="round"/></g></svg>
