<svg xmlns="http://www.w3.org/2000/svg" viewBox="0 0 24 24" fill="none" width="24px" height="24px"><path fill-rule="evenodd" clip-rule="evenodd" d="M14 5.80005C14 6.90462 13.1046 7.80005 12 7.80005C10.8954 7.80005 10 6.90462 10 5.80005C10 4.69548 10.8954 3.80005 12 3.80005C13.1046 3.80005 14 4.69548 14 5.80005ZM14 12C14 13.1046 13.1046 14 12 14C10.8954 14 10 13.1046 10 12C10 10.8955 10.8954 10 12 10C13.1046 10 14 10.8955 14 12ZM12 20.2C13.1046 20.2 14 19.3046 14 18.2C14 17.0955 13.1046 16.2 12 16.2C10.8954 16.2 10 17.0955 10 18.2C10 19.3046 10.8954 20.2 12 20.2Z" fill="#2F2F2F"></path></svg>